<svg xmlns="http://www.w3.org/2000/svg" width="250" height="250" viewBox="0 0 64 64" version="1.1" style="">
  <title>F6S-logo</title>
  <desc>Created with Sketch.</desc>
  <defs></defs>
  <g style="fill: none; fill-rule: evenodd; stroke: none; stroke-width: 1" transform="scale(0.08)">
    <g>
      <path
        d="M 400,0 C 179.086,0 0,179.086 0,400 0,620.914 179.086,800 400,800 620.914,800 800,620.914 800,400 800,179.086 620.914,0 400,0 Z"
        style="fill: #f06a4d"></path>
      <polygon
        points="156.901,180.139 289.76,180.139 293.734,180.139 293.734,184.113 293.734,233.935 293.734,237.909 289.76,237.909 210.697,237.909 210.697,362.821 256.545,362.821 260.519,362.821 260.519,366.795 260.519,416.617 260.519,420.591 256.545,420.591 210.697,420.591 210.697,615.905 210.697,619.879 206.723,619.879 156.901,619.879 152.927,619.879 152.927,615.905 152.927,184.113 152.927,180.139 "
        style="fill: #ffffff"></polygon>
      <path
        d="m 372.428,237.909 v 124.912 h 68.517 c 16.582,0 31.127,14.476 31.127,30.977 v 194.721 c 0,16.705 -14.545,31.359 -31.127,31.359 h -95.027 c -16.59,0 -31.143,-14.289 -31.143,-30.578 V 212.296 c 0,-16.829 14.448,-32.156 30.313,-32.156 h 95.858 c 16.582,0 31.127,14.468 31.127,30.961 v 72.657 3.974 h -3.974 -49.822 -3.974 v -3.974 -45.849 z m 0.016,182.68 v 141.519 h 41.875 V 420.589 Z"
        style="fill: #ffffff"></path>
      <path
        d="m 647.073,283.74 v 3.974 h -3.974 -49.822 -3.974 v -3.974 -45.849 h -41.875 v 124.913 l 69.116,0.016 c 16.441,0 30.529,19.672 30.529,35.777 v 189.705 c 0,16.812 -14.266,31.558 -30.529,31.558 h -92.918 c -16.254,0 -30.512,-14.367 -30.512,-30.744 v -106.004 -3.966 l 3.966,-0.007 46.368,-0.083 3.981,-0.007 v 3.981 79.063 h 41.875 V 420.574 l -65.706,0.016 c -16.239,0 -30.484,-14.553 -30.484,-31.143 V 211.282 c 0,-16.599 14.258,-31.16 30.512,-31.16 h 92.918 c 16.263,0 30.529,14.561 30.529,31.16 z"
        style="fill: #ffffff"></path>
    </g>
  </g>
</svg>